<svg xmlns="http://www.w3.org/2000/svg" viewBox="0 0 64 64">
  <defs>
    <linearGradient id="g" x1="0" y1="0" x2="0" y2="1">
      <stop offset="0%" stop-color="#2a9d8f"/>
      <stop offset="100%" stop-color="#1a7a6e"/>
    </linearGradient>
  </defs>
  <rect width="64" height="64" rx="14" fill="url(#g)"/>
  <path d="M22 12h20c1 0 2 1 2 2v4c0 1-1 2-2 2h-1l-1 30c0 3-3 6-7 6h-2c-4 0-7-3-7-6l-1-30h-1c-1 0-2-1-2-2v-4c0-1 1-2 2-2z" fill="none" stroke="#fff" stroke-width="2.5" stroke-linecap="round" stroke-linejoin="round"/>
  <path d="M27 26c0-2 2-3 5-3s5 1 5 3" fill="none" stroke="#e9c46a" stroke-width="2" stroke-linecap="round"/>
  <circle cx="32" cy="36" r="2.5" fill="#e9c46a"/>
</svg>
